<?xml version="1.0" standalone="no"?><!DOCTYPE svg PUBLIC "-//W3C//DTD SVG 1.1//EN" "http://www.w3.org/Graphics/SVG/1.1/DTD/svg11.dtd"><svg t="1552379113696" class="icon" style="" viewBox="0 0 1024 1024" version="1.1" xmlns="http://www.w3.org/2000/svg" p-id="44027" xmlns:xlink="http://www.w3.org/1999/xlink" width="200" height="200"><defs><style type="text/css"></style></defs><path d="M591.14666667 371.09333333c80 0 152.85333333 71.57333333 152.85333333 150.18666667 0 2.66666667 0.10666667 6.4 0.74666667 33.28 0.42666667 18.98666667 1.28 52.8 1.38666666 63.46666667L736.21333333 766.93333333c-3.41333333 25.17333333-29.86666667 93.44-87.57333333 99.52-1.38666667 0.10666667-2.98666667 0.21333333-4.69333333 0.21333334-17.81333333 0-35.94666667-8.10666667-42.45333334-15.57333334-1.06666667-1.28-1.70666667-1.92-1.38666666-5.44 5.54666667-33.92 19.52-166.4-82.45333334-255.25333333-87.04-75.94666667-89.6-110.08-89.6-113.70666667 0-37.44 4.58666667-48.10666667 32.53333334-76.16C478.93333333 382.18666667 521.06666667 371.2 573.01333333 371.2h18.13333334m0-114.02666667h-18.13333334c-71.14666667 0-146.02666667 15.78666667-192.96 62.61333334-46.93333333 46.93333333-65.92 85.44-65.92 156.69333333 0 82.77333333 84.48 161.06666667 128.64 199.57333333 64.32 56.10666667 44.48 153.38666667 44.48 153.38666667-12.26666667 98.34666667 80 150.93333333 156.69333334 150.93333333 5.54666667 0 11.09333333-0.32 16.42666666-0.85333333 119.04-12.37333333 181.44-127.04 189.22666667-202.45333333l10.34666667-155.41333334c0.21333333-4.69333333-2.13333333-95.68-2.13333334-100.37333333 0.10666667-142.4-124.26666667-264.10666667-266.66666666-264.10666667z" fill="#76B4FF" p-id="44028"></path><path d="M249.70666667 176.42666667m-131.94666667 0a131.94666667 131.94666667 0 1 0 263.89333333 0 131.94666667 131.94666667 0 1 0-263.89333333 0Z" fill="#00EFEF" p-id="44029"></path><path d="M574.61333333 131.84m-90.66666666 0a90.66666667 90.66666667 0 1 0 181.33333333 0 90.66666667 90.66666667 0 1 0-181.33333333 0Z" fill="#00EFEF" p-id="44030"></path><path d="M835.2 194.56m-74.24 0a74.24 74.24 0 1 0 148.48 0 74.24 74.24 0 1 0-148.48 0Z" fill="#00EFEF" p-id="44031"></path></svg>